<svg xmlns="http://www.w3.org/2000/svg" width="26" height="33" viewBox="0 0 26 33">
  <defs>
    <style>
      .cls-1 {
        fill: #fff;
        fill-rule: evenodd;
      }
    </style>
  </defs>
  <path id="Фігура_6" data-name="Фігура 6" class="cls-1" d="M30.934,687.323L28.705,678a2.212,2.212,0,0,0-2.162-1.63h-4.33a9.1,9.1,0,0,0-2.356-2.508v-6.1a2.241,2.241,0,0,0-3.225-1.925l-4.457,2.152a2.128,2.128,0,0,0-1.224,1.925v2.753c-0.014,0-.028.006-0.042,0.011A8.926,8.926,0,0,0,5,681.031,9.141,9.141,0,0,0,14.286,690a9.11,9.11,0,0,0,9.27-9.326H24.8l1.806,7.7a2.229,2.229,0,0,0,2.7,1.566A2.152,2.152,0,0,0,30.934,687.323Zm-16.648.523a6.947,6.947,0,0,1-7.057-6.815,6.733,6.733,0,0,1,3.722-5.994V677.8a2.226,2.226,0,0,0,4.45,0v-3.522a1.056,1.056,0,0,0,.17.047A6.8,6.8,0,0,1,14.286,687.846ZM18,657a3.23,3.23,0,1,0,3.343,3.228A3.291,3.291,0,0,0,18,657Z" transform="translate(-5 -657)"/>
</svg>
