<svg xmlns="http://www.w3.org/2000/svg" width="36" height="34" viewBox="0 0 36 34">
  <defs>
    <style>
      .cls-1 {
        fill: #fff;
        fill-rule: evenodd;
      }
    </style>
  </defs>
  <path id="Forma_1_копія" data-name="Forma 1 копія" class="cls-1" d="M1526.8,3575.28a4.4,4.4,0,0,1-.14.74,26.55,26.55,0,0,1-2.2,3.74c-0.92,1.61-8.75-1.85-7.74-3.99,0.38-.79,1.86-2.98,1.97-3.85,0.11-.79-0.85-1.4-1.73-1.48-2.32-.21-5.29-0.02-7.76,0h-0.41c-2.47-.02-5.44-0.21-7.76,0-0.88.08-1.84,0.69-1.73,1.48,0.11,0.87,1.59,3.06,1.97,3.85,1.01,2.14-6.82,5.6-7.74,3.99a27.615,27.615,0,0,1-2.21-3.74,4.4,4.4,0,0,1-.13-0.74c-1.15-5.59,3.28-11.29,9.94-11.87q3.825-.345,7.66-0.4v-0.02c0.07,0,.14.01,0.2,0.01s0.14-.01.21-0.01v0.02c2.55,0.05,5.11.17,7.65,0.4C1523.52,3563.99,1527.95,3569.7,1526.8,3575.28Zm-4.58,19.29a2.1,2.1,0,0,1-1.79,2.44h-22.87a2.1,2.1,0,0,1-1.79-2.44l0.67-12.23c2.42-.61,5.52-2.23,6.64-4.23a3.781,3.781,0,0,0,.18-3.47c-0.13-.27-0.38-0.69-0.66-1.17h0a0.06,0.06,0,0,1-.01-0.04h12.44a0.09,0.09,0,0,1-.01.05,2.046,2.046,0,0,0-.18.96c-0.04.07-.09,0.16-0.12,0.22a3.716,3.716,0,0,0,.19,3.45c1.12,2,4.22,3.61,6.64,4.23Zm-8.85-12.69a5.8,5.8,0,0,0-8.69,0,7.115,7.115,0,0,0,0,9.46,5.777,5.777,0,0,0,7.96.67l-1.5-1.64a3.811,3.811,0,0,1-4.99-.63,4.726,4.726,0,0,1,0-6.26,3.838,3.838,0,0,1,5.74,0,4.737,4.737,0,0,1,.6,5.42l1.5,1.63A7.133,7.133,0,0,0,1513.37,3581.88Z" transform="translate(-1491 -3563)"/>
</svg>
