<svg xmlns="http://www.w3.org/2000/svg" width="21.625" height="21.38" viewBox="0 0 21.625 21.38">
  <defs>
    <style>
      .cls-1 {
        fill: #fff;
        fill-rule: evenodd;
      }
    </style>
  </defs>
  <path id="Фігура_2" data-name="Фігура 2" class="cls-1" d="M120.452,3641.59h-9.91a5.82,5.82,0,0,0-5.849,5.78v9.8a5.828,5.828,0,0,0,5.849,5.79h9.911a5.828,5.828,0,0,0,5.849-5.79v-9.8A5.82,5.82,0,0,0,120.452,3641.59Zm-4.955,16.52a5.84,5.84,0,1,1,5.909-5.84A5.881,5.881,0,0,1,115.5,3658.11Zm6.05-10.3a1.73,1.73,0,1,1,1.746-1.73A1.742,1.742,0,0,1,121.547,3647.81Zm-6.05-.13a4.59,4.59,0,1,0,4.642,4.59A4.622,4.622,0,0,0,115.5,3647.68Zm6.05-2.07a0.47,0.47,0,1,0,.48.47A0.475,0.475,0,0,0,121.547,3645.61Z" transform="translate(-104.688 -3641.59)"/>
</svg>
